<svg xmlns="http://www.w3.org/2000/svg" width="20" height="20" viewBox="0 0 20 20">
    <path fill="#FFF" fill-rule="nonzero" d="M0 13.333a.833.833 0 1 1 1.667 0v.834h.975a2.501 2.501 0 0 1 4.716 0h5.284a2.501 2.501 0 0 1 4.716 0h.975v-3.584l-3.25-3.916h-4.25v-2.5H4.167a.833.833 0 0 1 0-1.667h7.083c.69 0 1.25.56 1.25 1.25V5h2.553c.494 0 .963.22 1.28.6l3.28 3.936c.25.3.387.678.387 1.067v3.98c0 .69-.56 1.25-1.25 1.25h-1.392a2.501 2.501 0 0 1-4.716 0H7.358a2.501 2.501 0 0 1-4.716 0H1.25c-.69 0-1.25-.56-1.25-1.25v-1.25zm10.833-6.666H12.5v7.5h-1.667v-7.5zM5 15.833a.833.833 0 1 0 0-1.666.833.833 0 0 0 0 1.666zm10 0a.833.833 0 1 0 0-1.666.833.833 0 0 0 0 1.666zM.833 9.167h5.834a.833.833 0 1 1 0 1.666H.833a.833.833 0 1 1 0-1.666zM2.5 5.833h5.833a.833.833 0 0 1 0 1.667H2.5a.833.833 0 1 1 0-1.667z"/>
</svg>
